/* XPM */
static char *f6b499dc42a54fd89a942ff4b464e9a5eWg2sD8yCrqh0dHR[] = {
/* columns rows colors chars-per-pixel */
"100 100 3 1 ",
"  c gray20",
". c #898989",
"X c gray87",
/* pixels */
"XXXXXXXXXXXXXXXXXXXXXXXXXXXXXXXXXXXXXXXXXXXXXXXXXXXXXXXXXXXXXXXXXXXXXXXXXXXXXXXXXXXXXXXXXXXXXXXXXXXX",
"XXXXXXXXXXXXXXXXXXXXXXXXXXXXXXXXXXXXXXXXXXXXXXXXXXXXXXXXXXXXXXXXXXXXXXXXXXXXXXXXXXXXXXXXXXXXXXXXXXXX",
"XXXXXXXXXXXXXXXXXXXXXXXXXXXXXXXXXXXXXXXXXXXXXXXXXXXXXXXXXXXXXXXXXXXXXXXXXXXXXXXXXXXXXXXXXXXXXXXXXXXX",
"XXXXX.                                                                                        .XXXXX",
"XXXX                                                                                            XXXX",
"XXX.                                                                                            .XXX",
"XXX                                                                                              XXX",
"XXX                                                                                              XXX",
"XXX                                                                                              XXX",
"XXX                                                                                              XXX",
"XXX                                                                                              XXX",
"XXX                                                                                              XXX",
"XXX                                                                                              XXX",
"XXX                                                                                              XXX",
"XXX                                                                                              XXX",
"XXX                                                                                              XXX",
"XXX                                                                                              XXX",
"XXX                                                                                              XXX",
"XXX                                                                                              XXX",
"XXX                                                                                              XXX",
"XXX                                                                                              XXX",
"XXX                                                                                              XXX",
"XXX                                                                                              XXX",
"XXX                                                                                              XXX",
"XXX                                                                                              XXX",
"XXX                                                                                              XXX",
"XXX                                                                                              XXX",
"XXX                                                                                              XXX",
"XXX                                                                                              XXX",
"XXX                                                                                              XXX",
"XXX                                                                                              XXX",
"XXX                                                                                              XXX",
"XXX                                                                                              XXX",
"XXX                                                                                              XXX",
"XXX                                                                                              XXX",
"XXX                                                                                              XXX",
"XXX                                                                                              XXX",
"XXX                                                                                              XXX",
"XXX                                                                                              XXX",
"XXX                                                                                              XXX",
"XXX                                                                                              XXX",
"XXX                                                                                              XXX",
"XXX                                                                                              XXX",
"XXX                                                                                              XXX",
"XXX                                                                                              XXX",
"XXX                                                                                              XXX",
"XXX                                                                                              XXX",
"XXX                                                                                              XXX",
"XXX                                                                                              XXX",
"XXX                                                                                              XXX",
"XXX                                                                                              XXX",
"XXX                                                                                              XXX",
"XXX                                                                                              XXX",
"XXX                                                                                              XXX",
"XXX                                                                                              XXX",
"XXX                                                                                              XXX",
"XXX                                                                                              XXX",
"XXX                                                                                              XXX",
"XXX                                                                                              XXX",
"XXX                                                                                              XXX",
"XXX                                                                                              XXX",
"XXX                                                                                              XXX",
"XXX                                                                                              XXX",
"XXX                                                                                              XXX",
"XXX                                                                                              XXX",
"XXX                                                                                              XXX",
"XXX                                                                                              XXX",
"XXX                                                                                              XXX",
"XXX                                                                                              XXX",
"XXX                                                                                              XXX",
"XXX                                                                                              XXX",
"XXX                                                                                              XXX",
"XXX                                                                                              XXX",
"XXX                                                                                              XXX",
"XXX                                                                                              XXX",
"XXX                                                                                              XXX",
"XXX                                                                                              XXX",
"XXX                                                                                              XXX",
"XXX                                                                                              XXX",
"XXX                                                                                              XXX",
"XXX                                                                                              XXX",
"XXX                                                                                              XXX",
"XXX                                                                                              XXX",
"XXX                                                                                              XXX",
"XXX                                                                                              XXX",
"XXX                                                                                              XXX",
"XXX                                                                                              XXX",
"XXX                                                                                              XXX",
"XXX                                                                                              XXX",
"XXX                                                                                              XXX",
"XXX                                                                                              XXX",
"XXX                                                                                              XXX",
"XXX                                                                                              XXX",
"XXX                                                                                              XXX",
"XXX.                                                                                            .XXX",
"XXXX                                                                                            XXXX",
"XXXXX.                                                                                        .XXXXX",
"XXXXXXXXXXXXXXXXXXXXXXXXXXXXXXXXXXXXXXXXXXXXXXXXXXXXXXXXXXXXXXXXXXXXXXXXXXXXXXXXXXXXXXXXXXXXXXXXXXXX",
"XXXXXXXXXXXXXXXXXXXXXXXXXXXXXXXXXXXXXXXXXXXXXXXXXXXXXXXXXXXXXXXXXXXXXXXXXXXXXXXXXXXXXXXXXXXXXXXXXXXX",
"XXXXXXXXXXXXXXXXXXXXXXXXXXXXXXXXXXXXXXXXXXXXXXXXXXXXXXXXXXXXXXXXXXXXXXXXXXXXXXXXXXXXXXXXXXXXXXXXXXXX"
};
