/* XPM */
static char *result[] = {
/* columns rows colors chars-per-pixel */
"100 10 25 1 ",
"  c #252525",
". c gray15",
"X c #272727",
"o c #282828",
"O c gray16",
"+ c #2A2A2A",
"@ c gray17",
"# c #2D2D2D",
"$ c gray18",
"% c #2F2F2F",
"& c #1E567D",
"* c #1D577F",
"= c #1D5881",
"- c #1D5882",
"; c #1D5984",
": c #1D5B86",
"> c #1D5B88",
", c #1D5C89",
"< c #1C5F8E",
"1 c #1C608F",
"2 c #1C6090",
"3 c #0193FC",
"4 c #0094FD",
"5 c #0095FE",
"6 c #0095FF",
/* pixels */
"665<#+o.                                                                                   .Xo@$,666",
"6661#+o..                                                                                  .XO@$,666",
"6662$+o..                                                                                  .XO@$>666",
"6662$+o..                                                                                  .XO@$:666",
"6662%+o..                                                                                  .XO@$;666",
"6662%+o..                                                                                  .XO@$-666",
"6662%+o..                                                                                  .XO@$-666",
"6652%+o..                                                                                  .Xo@$=666",
"6542%+o..                                                                                  .Xo@$*566",
"6432$+o..                                                                                  .Xo+$&466"
};
