/* XPM */
static char *_559625108f844a1e79e0f4aa952e212d3VZrpTYNNnLvCa4[] = {
/* columns rows colors chars-per-pixel */
"100 110 32 1 ",
"  c #1A1F22",
". c gray19",
"X c #323232",
"o c gray20",
"O c #343434",
"+ c gray23",
"@ c #124163",
"# c #12456A",
"$ c #494949",
"% c #0E5181",
"& c #0E588D",
"* c #1C6090",
"= c #0968AB",
"- c #096CB2",
"; c #037FD7",
": c #0480D7",
"> c #0481DA",
", c #0187E5",
"< c #0387E5",
"1 c #0389E8",
"2 c #1D92E6",
"3 c #028DF0",
"4 c #018FF3",
"5 c #018FF5",
"6 c #0191F7",
"7 c #0092F9",
"8 c #0192FA",
"9 c #0093FB",
"0 c #0093FC",
"q c #0094FE",
"w c #0095FE",
"e c #0095FF",
/* pixels */
" @=:1669qeeeeeeeeeeeeeeeeeeeeeeeeeeeeeeeeeeeeeeeeeeeeeeeeeeeeeeeeeeeeeeeeeeeeeeeeeeeeeeeeeee9631>-# ",
"%;5qee9qeeeeeeeeeeeeeeeeeeeeeeeeeeeeeeeeeeeeeeeeeeeeeeeeeeeeeeeeeeeeeeeeeeeeeeeeeeeeeeeeeeeeeeeee9<&",
",9qqeeqqeeeeeeeeqqqqeeeeeeeeeeeeeeeeeeeeeeeeeeeeeeeeeeeeeeeeeeeeeeqqeeeeeeeeeeeeeeeeeeeeqeqqeeeeeeq6",
"qqqqq2****************************************************************************************2eeee9",
"qqee**........................................................................................**eeee",
"eee2*O.O++++++++++++++++++++++++++++++++++++++++++++++++++++++++++++++++++++++++++++++++++++O.O*2eee",
"eee*OO.+$$$$$$$$$$$$$$$$$$$$$$$$$$$$$$$$$$$$$$$$$$$$$$$$$$$$$$$$$$$$$$$$$$$$$$$$$$$$$$$$$$$$+.OO*eee",
"eee*OO.+$$$$$$$$$$$$$$$$$$$$$$$$$$$$$$$$$$$$$$$$$$$$$$$$$$$$$$$$$$$$$$$$$$$$$$$$$$$$$$$$$$$$+..O*eee",
"eeq*O..+$$$$$$$$$$$$$$$$$$$$$$$$$$$$$$$$$$$$$$$$$$$$$$$$$$$$$$$$$$$$$$$$$$$$$$$$$$$$$$$$$$$$+.OO*eee",
"eeq*OO.+$$$$$$$$$$$$$$$$$$$$$$$$$$$$$$$$$$$$$$$$$$$$$$$$$$$$$$$$$$$$$$$$$$$$$$$$$$$$$$$$$$$$+..O*eee",
"eeq*O..+$$$$$$$$$$$$$$$$$$$$$$$$$$$$$$$$$$$$$$$$$$$$$$$$$$$$$$$$$$$$$$$$$$$$$$$$$$$$$$$$$$$$+.O.*eee",
"eeq*OO.+$$$$$$$$$$$$$$$$$$$$$$$$$$$$$$$$$$$$$$$$$$$$$$$$$$$$$$$$$$$$$$$$$$$$$$$$$$$$$$$$$$$$+.OO*eee",
"eee*OO.+$$$$$$$$$$$$$$$$$$$$$$$$$$$$$$$$$$$$$$$$$$$$$$$$$$$$$$$$$$$$$$$$$$$$$$$$$$$$$$$$$$$$+.OO*eee",
"eee*.O.+$$$$$$$$$$$$$$$$$$$$$$$$$$$$$$$$$$$$$$$$$$$$$$$$$$$$$$$$$$$$$$$$$$$$$$$$$$$$$$$$$$$$+..O*eee",
"eee*OO.+$$$$$$$$$$$$$$$$$$$$$$$$$$$$$$$$$$$$$$$$$$$$$$$$$$$$$$$$$$$$$$$$$$$$$$$$$$$$$$$$$$$$+.OO*eee",
"eee*OO.+$$$$$$$$$$$$$$$$$$$$$$$$$$$$$$$$$$$$$$$$$$$$$$$$$$$$$$$$$$$$$$$$$$$$$$$$$$$$$$$$$$$$+.OO*eee",
"eee*OO.+$$$$$$$$$$$$$$$$$$$$$$$$$$$$$$$$$$$$$$$$$$$$$$$$$$$$$$$$$$$$$$$$$$$$$$$$$$$$$$$$$$$$+.O.*eee",
"eee*OO.+$$$$$$$$$$$$$$$$$$$$$$$$$$$$$$$$$$$$$$$$$$$$$$$$$$$$$$$$$$$$$$$$$$$$$$$$$$$$$$$$$$$$+.OO*eee",
"eee*OO.O++++++++++++++++++++++++++++++++++++++++++++++++++++++++++++++++++++++++++++++++++++O.OO*eee",
"eee*.O.........................................................................................O*eee",
"eee*O.OOOOOOO.O.O.O.OOO.OOOOO.O.OOO.OOOOOOO.OOOOOOOOO.OOO.O.OOO.O.O.OOOOOOO.OOO.O.OOO.O.O.OOOOOO*eee",
"eee*OO.O.O.OOOOOOOOO.OOO.O.OOOOO.OOO.O.O.OOO.O.OOO.OOO.OOOOO.OOOOOOO.O.O.OOO.OOOOO.OOOOOOO.O.O.O*eee",
"eeq*OOOOOOO.O.OOO.OOO.O.OOO.O.OOO.O.OOO.O.O.OOO.OOOOOOOOO.OOO.O.O.OOOOO.O.O.O.O.OOOOO.OOOOOOOOO.*eee",
"eeq*.O.O.OOOOO.OOO.OOOOO.OOOOO.OOOOO.OOOOOOO.OOO.O.O.O.OOO.OOOOOOO.O.OOOOOOOOOOO.O.OOO.O.O.O.OOO*eee",
"eee*OOOOOOO.OOOOOOO.OOOOOOO.OOOOO.OOOOO.OOOOO.OOO.O.O.O.O.OOOOO.O.O.OOO.OOOOOOOOOOO.O.OOOOOOO.OO*eee",
"eee*.O.O.OOO.O.O.OOO.O.O.OOO.O.OOO.O.OOO.O.OOO.OOOOOOOOOOO.O.OOOOOOO.OOO.O.O.O.O.OOOOO.O.O.OOO.O*eee",
"eee*OOO.O.O.OOO.O.O.OOO.O.O.OOO.OOOOO.O.OOO.OOOOO.OOO.OOOOOOO.O.O.OOO.O.OOO.OOO.O.O.OOOOOOO.OOOO*eee",
"eee*.OOOOOOO.OOOOOOO.OOOOOOO.OOO.O.OOOOO.OOO.O.OOO.OOO.O.O.OOOOOOO.OOOOO.OOO.OOOOOOO.O.O.OOO.O.O*eee",
"eee*OOOOO.OOO.OOO.OOO.OOO.OOO.OOO.O.OOO.OOOOO.O.OOO.OOOOO.O.OOO.O.O.OOOOO.OOO.O.OOOOO.OOOOOOO.O.*eee",
"eee*OO.OOO.OOO.OOO.OOO.OOO.OOO.OOOOO.OOO.O.OOOOO.OOO.O.OOOOO.OOOOOOO.O.OOO.OOOOO.O.OOO.O.O.OOOOO*eee",
"eee*OOOOOOOOOOOOOOOOOOOOOOOOOOOOO.OOO.O.OOO.O.OOO.O.OOO.O.OOO.O.O.OOOOO.OOOOO.OOOOO.OOOOOOO.O.OO*eee",
"eee*.O.O.O.O.O.O.O.O.O.O.O.O.O.OOO.OOOOO.OOOOO.OOOOO.OOOOO.OOOOOOO.O.OOO.O.OOO.O.OOO.O.O.OOOOO.O*eee",
"eeq*O.O.O.O.O.O.O.O.O.O.O.O.O.O.O.OOOOO.OOOOO.OOOOO.OOOOO.OOOOO.OOOOO.OOOOO.OOOOO.OOOOO.OOOOO.OO*eee",
"eeq*OOOOOOOOOOOOOOOOOOOOOOOOOOOOOO.O.OOO.O.OOO.O.OOO.O.OOO.O.OOO.O.OOO.O.OOO.O.OOO.O.OOO.O.OOO.O*eee",
"eeq*O.OOO.OOO.OOO.OOO.OOO.OOO.OOOOOOO.O.OOO.OOOOO.O.OOO.OOOOO.O.OOO.OOOOO.O.OOO.OOOOO.O.OOO.OOOO*eee",
"eeq*OO.OOO.OOO.OOO.OOO.OOO.OOO.O.O.OOOOO.OOO.O.OOOOO.OOO.O.OOOOO.OOO.O.OOOOO.OOO.O.OOOOO.OOO.O.O*eee",
"eee*OOOOOOO.OOOOOOO.OOOOOOO.OOOOO.O.OOO.OOOOO.O.O.OOO.OOO.O.OOO.OOOOO.O.O.OOO.OOO.O.OOO.OOOOO.O.*eee",
"eee*.O.O.OOO.O.O.OOO.O.O.OOO.O.OOOOO.OOO.O.OOOOOOO.OOO.OOOOO.OOO.O.OOOOOOO.OOO.OOOOO.OOO.O.OOOOO*eee",
"eee*OOO.O.O.OOO.O.O.OOO.O.O.OOO.O.OOO.O.OOO.O.OOOOOOOOOOO.OOO.O.OOO.O.OOOOOOOOOOO.OOO.O.OOO.O.OO*eee",
"eee*.OOOOOOO.OOOOOOO.OOOOOOO.OOOOO.OOOOO.OOOOO.O.O.O.O.OOO.OOOOO.OOOOO.O.O.O.O.OOO.OOOOO.OOOOO.O*eee",
"eee*OOO.OOOOO.OOO.OOOOO.OOOOO.OOOOO.OOOOOOO.OOOOO.O.O.O.O.OOOOO.OOOOO.OOO.O.O.O.OOO.OOOOOOO.OOOO*eee",
"eee*OOOO.O.OOO.OOO.O.OOO.O.OOO.O.OOO.O.O.OOO.O.OOOOOOOOOOO.O.OOO.O.OOO.OOOOOOOOO.OOO.O.O.OOO.O.O*eee",
"eee*O.O.OOO.OOOOOOOOO.O.OOO.OOOOO.O.OOO.O.O.OOO.O.OOO.OOOOOOO.O.OOO.OOOOO.OOO.OOO.O.OOO.O.O.OOO.*eee",
"eee*OOOO.OOO.O.O.O.OOOOO.OOO.O.OOOOO.OOOOOOO.OOOOO.OOO.O.O.OOOOO.OOO.O.OOO.OOO.OOOOO.OOOOOOO.OOO*eee",
"eeq*OOO.OOOOO.O.O.O.OOO.OOOOO.O.O.OOO.OOO.OOO.OOOOO.OOOOO.O.OOO.OOOOO.O.OOO.OOOOO.OOO.OOO.OOO.OO*eee",
"eeq*.OOO.O.OOOOOOOOO.OOO.O.OOOOOOO.OOO.OOO.OOO.O.OOO.O.OOOOO.OOO.O.OOOOO.OOO.O.OOO.OOO.OOO.OOO.O*eee",
"eeq*O.O.OOO.O.OOO.OOO.O.OOO.O.OOOOOOOOOOOOOOOOOOO.O.OOO.O.OOO.O.OOO.O.OOO.O.OOO.OOOOOOOOOOOOOOOO*eee",
"eeq*OOOO.OOOOO.OOO.OOOOO.OOOOO.O.O.O.O.O.O.O.O.OOOOO.OOOOO.OOOOO.OOOOO.OOOOO.OOO.O.O.O.O.O.O.O.O*eee",
"eee*OOOOO.OOOOO.OOOOO.OOOOO.OOOOO.O.O.O.O.O.O.O.OOO.OOOOO.OOOOO.OOOOO.OOOOO.OOOOO.O.O.O.O.O.O.O.*eee",
"eee*.O.OOO.O.OOO.O.OOO.O.OOO.O.OOOOOOOOOOOOOOOOO.OOO.O.OOO.O.OOO.O.OOO.O.OOO.O.OOOOOOOOOOOOOOOOO*eee",
"eee*OOO.OOOOO.O.OOO.OOOOO.O.OOO.O.OOO.OOO.OOO.OOO.O.OOO.OOOOO.O.OOO.OOOOO.O.OOO.O.OOO.OOO.OOO.OO*eee",
"eee*.OOO.O.OOOOO.OOO.O.OOOOO.OOOOO.OOO.OOO.OOO.OOOOO.OOO.O.OOOOO.OOO.O.OOOOO.OOOOO.OOO.OOO.OOO.O*eee",
"eee*OOOOO.O.OOO.OOOOO.O.O.OOO.OOOOO.OOOOOOO.OOOOO.OOO.OOO.O.OOO.OOOOO.O.O.OOO.OOOOO.OOOOOOO.OOOO*eee",
"eee*OO.OOOOO.OOO.O.OOOOOOO.OOO.O.OOO.O.O.OOO.O.OOO.OOO.OOOOO.OOO.O.OOOOOOO.OOO.O.OOO.O.O.OOO.O.O*eee",
"eee*OOOOO.OOO.O.OOO.O.OOOOOOOOOOO.O.OOO.O.O.OOO.OOOOOOOOO.OOO.O.OOO.O.OOOOOOOOOOO.O.OOO.O.O.OOO.*eee",
"eee*.O.OOO.OOOOO.OOOOO.O.O.O.O.OOOOO.OOOOOOO.OOO.O.O.O.OOO.OOOOO.OOOOO.O.O.O.O.OOOOO.OOOOOOO.OOO*eee",
"eeq*O.O.O.OOOOO.OOOOO.OOO.O.O.O.O.OOOOO.OOOOO.OOO.O.O.O.O.OOOOO.OOOOO.OOO.O.O.O.O.OOOOO.OOOOO.OO*eee",
"eeq*OOOOOO.O.OOO.O.OOO.OOOOOOOOOOO.O.OOO.O.OOO.OOOOOOOOOOO.O.OOO.O.OOO.OOOOOOOOOOO.O.OOO.O.OOO.O*eee",
"eeq*O.OOOOOOO.O.OOO.OOOOO.OOO.OOOOOOO.O.OOO.OOOOO.OOO.OOOOOOO.O.OOO.OOOOO.OOO.OOOOOOO.O.OOO.OOOO*eee",
"eeq*OO.O.O.OOOOO.OOO.O.OOO.OOO.O.O.OOOOO.OOO.O.OOO.OOO.O.O.OOOOO.OOO.O.OOO.OOO.O.O.OOOOO.OOO.O.O*eee",
"eee*OOOOO.O.OOO.OOOOO.O.OOO.OOOOO.O.OOO.OOOOO.O.OOO.OOOOO.O.OOO.OOOOO.O.OOO.OOOOO.O.OOO.OOOOO.O.*eee",
"eee*.O.OOOOO.OOO.O.OOOOO.OOO.O.OOOOO.OOO.O.OOOOO.OOO.O.OOOOO.OOO.O.OOOOO.OOO.O.OOOOO.OOO.O.OOOOO*eee",
"eee*OOO.O.OOO.O.OOO.O.OOO.O.OOO.O.OOO.O.OOO.O.OOO.O.OOO.O.OOO.O.OOO.O.OOO.O.OOO.O.OOO.O.OOO.O.OO*eee",
"eee*.OOOOO.OOOOO.OOOOO.OOOOO.OOOOO.OOOOO.OOOOO.OOOOO.OOOOO.OOOOO.OOOOO.OOOOO.OOOOO.OOOOO.OOOOOOO*eee",
"eee*OOO.OOOOO.OOOOO.OOOOO.OOOOO.OXOXOXOXOXOXOXOXOXOXOXOXOXOXOXOXOXOXOXOXOXOXOXOXOXOXOXOXOXOXOXOX*eee",
"eee*OOOO.O.OOO.O.OOO.O.OOO.O.OOOXOXOXOXOXOXOXOXOXOXOXOXOXOXOXOXOXOXOXOXOXOXOXOXOXOXOXOXOXOXOXOXO*eee",
"eee*O.O.OOO.OOOOO.O.OOO.OOOOO.O.OXOXOXOXOXOXOXOXOXOXOXOXOXOXOXOXOXOXOXOXOXOXOXOXOXOXOXOXOXOXOXOX*eee",
"eee*OOOO.OOO.O.OOOOO.OOO.O.OOOOOXOXOXOXOXOXOXOXOXOXOXOXOXOXOXOXOXOXOXOXOXOXOXOXOXOXOXOXOXOXOXOXO*eee",
"eeq*OOO.OOOOO.O.O.OOO.OOO.O.OOO.OXOXOXOXOXOXOXOXOXOXOXOXOXOXOXOXOXOXOXOXOXOXOXOXOXOXOXOXOXOXOXOX*eee",
"eeq*.OOO.O.OOOOOOO.OOO.OOOOO.OOOXOXOXOXOXOXOXOXOXOXOXOXOXOXOXOXOXOXOXOXOXOXOXOXOXOXOXOXOXOXOXOXO*eee",
"eeq*O.O.OOO.O.OOOOOOOOOOO.OOO.O.OXOXOXOXOXOXOXOXOXOXOXOXOXOXOXOXOXOXOXOXOXOXOXOXOXOXOXOXOXOXOXOX*eee",
"eeq*OOOO.OOOOO.O.O.O.O.OOO.OOOOOXOXOXOXOXOXOXOXOXOXOXOXOXOXOXOXOXOXOXOXOXOXOXOXOXOXOXOXOXOXOXOXO*eee",
"eee*OOOOOOO.OOOOO.O.O.O.O.OOOOO.OXOXOXOXOXOXOXOXOXOXOXOXOXOXOXOXOXOXOXOXOXOXOXOXOXOXOXOXOXOXOXOX*eee",
"eee*.O.O.OOO.O.OOOOOOOOOOO.O.OOOXOXOXOXOXOXOXOXOXOXOXOXOXOXOXOXOXOXOXOXOXOXOXOXOXOXOXOXOXOXOXOXO*eee",
"eee*OOO.O.O.OOO.O.OOO.OOOOOOO.O.OXOXOXOXOXOXOXOXOXOXOXOXOXOXOXOXOXOXOXOXOXOXOXOXOXOXOXOXOXOXOXOX*eee",
"eee*.OOOOOOO.OOOOO.OOO.O.O.OOOOOXOXOXOXOXOXOXOXOXOXOXOXOXOXOXOXOXOXOXOXOXOXOXOXOXOXOXOXOXOXOXOXO*eee",
"eee*OOOOO.OOO.OOOOO.OOOOO.O.OOO.OXOXOXOXOXOXOXOXOXOXOXOXOXOXOXOXOXOXOXOXOXOXOXOXOXOXOXOXOXOXOXOX*eee",
"eee*OO.OOO.OOO.O.OOO.O.OOOOO.OOOXOXOXOXOXOXOXOXOXOXOXOXOXOXOXOXOXOXOXOXOXOXOXOXOXOXOXOXOXOXOXOXO*eee",
"eee*OOOOOOOOOOOOO.O.OOO.O.OOO.O.OXOXOXOXOXOXOXOXOXOXOXOXOXOXOXOXOXOXOXOXOXOXOXOXOXOXOXOXOXOXOXOX*eee",
"eee*.O.O.O.O.O.OOOOO.OOOOO.OOOOOXOXOXOXOXOXOXOXOXOXOXOXOXOXOXOXOXOXOXOXOXOXOXOXOXOXOXOXOXOXOXOXO*eee",
"eeq*O.O.O.O.O.O.OOO.OOOOO.OOOOO.OXOXOXOXOXOXOXOXOXOXOXOXOXOXOXOXOXOXOXOXOXOXOXOXOXOXOXOXOXOXOXOX*eee",
"eeq*OOOOOOOOOOOO.OOO.O.OOO.O.OOOXOXOXOXOXOXOXOXOXOXOXOXOXOXOXOXOXOXOXOXOXOXOXOXOXOXOXOXOXOXOXOXO*eee",
"eeq*O.OOO.OOO.OOO.O.OOO.OOOOO.O.OXOXOXOXOXOXOXOXOXOXOXOXOXOXOXOXOXOXOXOXOXOXOXOXOXOXOXOXOXOXOXOX*eee",
"eeq*OO.OOO.OOO.OOOOO.OOO.O.OOOOOXOXOXOXOXOXOXOXOXOXOXOXOXOXOXOXOXOXOXOXOXOXOXOXOXOXOXOXOXOXOXOXO*eee",
"eee*OOOOOOO.OOOOO.OOO.OOO.O.OOO.OXOXOXOXOXOXOXOXOXOXOXOXOXOXOXOXOXOXOXOXOXOXOXOXOXOXOXOXOXOXOXOX*eee",
"eee*.O.O.OOO.O.OOO.OOO.OOOOO.OOOXOXOXOXOXOXOXOXOXOXOXOXOXOXOXOXOXOXOXOXOXOXOXOXOXOXOXOXOXOXOXOXO*eee",
"eee*OOO.O.O.OOO.OOOOOOOOO.OOO.O.OXOXOXOXOXOXOXOXOXOXOXOXOXOXOXOXOXOXOXOXOXOXOXOXOXOXOXOXOXOXOXOX*eee",
"eee*.OOOOOOO.OOO.O.O.O.OOO.OOOOOXOXOXOXOXOXOXOXOXOXOXOXOXOXOXOXOXOXOXOXOXOXOXOXOXOXOXOXOXOXOXOXO*eee",
"eee*OOO.OOOOO.OOO.O.O.O.O.OOOOO.OXOXOXOXOXOXOXOXOXOXOXOXOXOXOXOXOXOXOXOXOXOXOXOXOXOXOXOXOXOXOXOX*eee",
"eee*OOOO.O.OOO.OOOOOOOOOOO.O.OOOXOXOXOXOXOXOXOXOXOXOXOXOXOXOXOXOXOXOXOXOXOXOXOXOXOXOXOXOXOXOXOXO*eee",
"eee*O.O.OOO.OOOOO.OOO.OOOOOOO.O.OXOXOXOXOXOXOXOXOXOXOXOXOXOXOXOXOXOXOXOXOXOXOXOXOXOXOXOXOXOXOXOX*eee",
"eee*OOOO.OOO.O.OOO.OOO.O.O.OOOOOXOXOXOXOXOXOXOXOXOXOXOXOXOXOXOXOXOXOXOXOXOXOXOXOXOXOXOXOXOXOXOXO*eee",
"eeq*OOO.OOOOO.O.OOO.OOOOO.O.OOO.OXOXOXOXOXOXOXOXOXOXOXOXOXOXOXOXOXOXOXOXOXOXOXOXOXOXOXOXOXOXOXOX*eee",
"eeq*.OOO.O.OOOOO.OOO.O.OOOOO.OOOXOXOXOXOXOXOXOXOXOXOXOXOXOXOXOXOXOXOXOXOXOXOXOXOXOXOXOXOXOXOXOXO*eee",
"eeq*O.O.OOO.O.OOO.O.OOO.O.OOO.O.OXOXOXOXOXOXOXOXOXOXOXOXOXOXOXOXOXOXOXOXOXOXOXOXOXOXOXOXOXOXOXOX*eee",
"eeq*OOOO.OOOOO.OOOOO.OOOOO.OOOOOXOXOXOXOXOXOXOXOXOXOXOXOXOXOXOXOXOXOXOXOXOXOXOXOXOXOXOXOXOXOXOXO*eeq",
"eee*OOOOO.OOOOO.OXOXOXOXOXOXOXOXOXOXOXOXOXOXOXOXOXOXOXOXOXOXOXOXOXOXOXOXOXOXOXOXOXOXOXOXOXOXOXOX*qqq",
"eee*.O.OOO.O.OOOXOXOXOXOXOXOXOXOXOXOXOXOXOXOXOXOXOXOXOXOXOXOXOXOXOXOXOXOXOXOXOXOXOXOXOXOXOXOXOXO*qee",
"eee*OOO.OOOOO.O.OXOXOXOXOXOXOXOXOXOXOXOXOXOXOXOXOXOXOXOXOXOXOXOXOXOXOXOXOXOXOXOXOXOXOXOXOXOXOXOX*eee",
"eee*.OOO.O.OOOOOXOXOXOXOXOXOXOXOXOXOXOXOXOXOXOXOXOXOXOXOXOXOXOXOXOXOXOXOXOXOXOXOXOXOXOXOXOXOXOXO*eee",
"eee*OOOOO.O.OOO.OXOXOXOXOXOXOXOXOXOXOXOXOXOXOXOXOXOXOXOXOXOXOXOXOXOXOXOXOXOXOXOXOXOXOXOXOXOXOXOX*eee",
"eee*OO.OOOOO.OOOXOXOXOXOXOXOXOXOXOXOXOXOXOXOXOXOXOXOXOXOXOXOXOXOXOXOXOXOXOXOXOXOXOXOXOXOXOXOXOXO*eee",
"eee*OOOOO.OOO.O.OXOXOXOXOXOXOXOXOXOXOXOXOXOXOXOXOXOXOXOXOXOXOXOXOXOXOXOXOXOXOXOXOXOXOXOXOXOXOXOX*eee",
"eee*.O.OOO.OOOOOXOXOXOXOXOXOXOXOXOXOXOXOXOXOXOXOXOXOXOXOXOXOXOXOXOXOXOXOXOXOXOXOXOXOXOXOXOXOXOXO*eee",
"eee2*XOOO.OOOOO.OXOXOXOXOXOOOXOOOXOOOXOOOXOXOXOXOXOXOXOXOXOOOXOOOXOOOXOOOXOXOXOXOOXOXOOOO.OOXOO*2eee",
"eeee**OOOOOO.OOOOOXOXOOOXOXOXOXOXOXOXOXOXOOOXOXOOOXOXOOOXOXOXOXOXOXOXOXOXOOOXOXOOOOXOXOOOOOOOO**eeee",
"eeeeq2****************************************************************************************2eeeee",
"6eeeqqeeqqqqqqqqeeeeqqeeqqeeqqeeqqeeqqeeqqeeeeqqeeeeqqeeqqeeqqeeqqeeqqeeqqeeeeqqeeee9qqeqqeeq9eeee96",
"&<6qeeeeeeeeeeeeeeeeeeeeeeeeeeeeeeeeeeeeeeeeeeeeeeeeeeeeeeeeeeeeeeeeeeeeeeeeeeeeeeeeeeeeqeeeeeeee9<&",
" #->1369eeeeeeeeeeeeeeeeeeeeeeeeeeeeeeeeeeeeeeeeeeeeeeeeeeeeeeeeeeeeeeeeeeeeeeeeeeeeeeeeqeee9631>-# "
};
