/* XPM */
static char *b8ef2f7e3ba34c65bf6816bec6ea82982iWNkyZArZYX9mgZ[] = {
/* columns rows colors chars-per-pixel */
"100 100 4 1 ",
"  c gray20",
". c #1C6090",
"X c #1D92E6",
"o c #0095FF",
/* pixels */
"oooooooooooooooooooooooooooooooooooooooooooooooooooooooooooooooooooooooooooooooooooooooooooooooooooo",
"oooooooooooooooooooooooooooooooooooooooooooooooooooooooooooooooooooooooooooooooooooooooooooooooooooo",
"oooooooooooooooooooooooooooooooooooooooooooooooooooooooooooooooooooooooooooooooooooooooooooooooooooo",
"oooooX........................................................................................Xooooo",
"oooo..                                                                                        ..oooo",
"oooX.                                                                                          .Xooo",
"ooo.                                                                                            .ooo",
"ooo.                                                                                            .ooo",
"ooo.                                                                                            .ooo",
"ooo.                                                                                            .ooo",
"ooo.                                                                                            .ooo",
"ooo.                                                                                            .ooo",
"ooo.                                                                                            .ooo",
"ooo.                                                                                            .ooo",
"ooo.                                                                                            .ooo",
"ooo.                                                                                            .ooo",
"ooo.                                                                                            .ooo",
"ooo.                                                                                            .ooo",
"ooo.                                                                                            .ooo",
"ooo.                                                                                            .ooo",
"ooo.                                                                                            .ooo",
"ooo.                                                                                            .ooo",
"ooo.                                                                                            .ooo",
"ooo.                                                                                            .ooo",
"ooo.                                                                                            .ooo",
"ooo.                                                                                            .ooo",
"ooo.                                                                                            .ooo",
"ooo.                                                                                            .ooo",
"ooo.                                                                                            .ooo",
"ooo.                                                                                            .ooo",
"ooo.                                                                                            .ooo",
"ooo.                                                                                            .ooo",
"ooo.                                                                                            .ooo",
"ooo.                                                                                            .ooo",
"ooo.                                                                                            .ooo",
"ooo.                                                                                            .ooo",
"ooo.                                                                                            .ooo",
"ooo.                                                                                            .ooo",
"ooo.                                                                                            .ooo",
"ooo.                                                                                            .ooo",
"ooo.                                                                                            .ooo",
"ooo.                                                                                            .ooo",
"ooo.                                                                                            .ooo",
"ooo.                                                                                            .ooo",
"ooo.                                                                                            .ooo",
"ooo.                                                                                            .ooo",
"ooo.                                                                                            .ooo",
"ooo.                                                                                            .ooo",
"ooo.                                                                                            .ooo",
"ooo.                                                                                            .ooo",
"ooo.                                                                                            .ooo",
"ooo.                                                                                            .ooo",
"ooo.                                                                                            .ooo",
"ooo.                                                                                            .ooo",
"ooo.                                                                                            .ooo",
"ooo.                                                                                            .ooo",
"ooo.                                                                                            .ooo",
"ooo.                                                                                            .ooo",
"ooo.                                                                                            .ooo",
"ooo.                                                                                            .ooo",
"ooo.                                                                                            .ooo",
"ooo.                                                                                            .ooo",
"ooo.                                                                                            .ooo",
"ooo.                                                                                            .ooo",
"ooo.                                                                                            .ooo",
"ooo.                                                                                            .ooo",
"ooo.                                                                                            .ooo",
"ooo.                                                                                            .ooo",
"ooo.                                                                                            .ooo",
"ooo.                                                                                            .ooo",
"ooo.                                                                                            .ooo",
"ooo.                                                                                            .ooo",
"ooo.                                                                                            .ooo",
"ooo.                                                                                            .ooo",
"ooo.                                                                                            .ooo",
"ooo.                                                                                            .ooo",
"ooo.                                                                                            .ooo",
"ooo.                                                                                            .ooo",
"ooo.                                                                                            .ooo",
"ooo.                                                                                            .ooo",
"ooo.                                                                                            .ooo",
"ooo.                                                                                            .ooo",
"ooo.                                                                                            .ooo",
"ooo.                                                                                            .ooo",
"ooo.                                                                                            .ooo",
"ooo.                                                                                            .ooo",
"ooo.                                                                                            .ooo",
"ooo.                                                                                            .ooo",
"ooo.                                                                                            .ooo",
"ooo.                                                                                            .ooo",
"ooo.                                                                                            .ooo",
"ooo.                                                                                            .ooo",
"ooo.                                                                                            .ooo",
"ooo.                                                                                            .ooo",
"oooX.                                                                                          .Xooo",
"oooo..                                                                                        ..oooo",
"oooooX........................................................................................Xooooo",
"oooooooooooooooooooooooooooooooooooooooooooooooooooooooooooooooooooooooooooooooooooooooooooooooooooo",
"oooooooooooooooooooooooooooooooooooooooooooooooooooooooooooooooooooooooooooooooooooooooooooooooooooo",
"oooooooooooooooooooooooooooooooooooooooooooooooooooooooooooooooooooooooooooooooooooooooooooooooooooo"
};
