/* XPM */
static char *result[] = {
/* columns rows colors chars-per-pixel */
"15 10 7 1 ",
"  c #1E1E1E",
". c #434343",
"X c #404244",
"o c #494C4E",
"O c gray30",
"+ c #0072C3",
"@ c #0082DF",
/* pixels */
"               ",
"OOOOOOOOOOOOOOo",
"OOOOOOOOOOOOOOo",
"..............X",
"+@@@@@@@@@@@@@+",
"+@@@@@@@@@@@@@+",
"..............X",
"OOOOOOOOOOOOOOo",
"OOOOOOOOOOOOOOo",
"               "
};
