/* XPM */
static char *ffee3c7fe3db4f28fa32e19d69b168bfA3l2iX5CqX3wnfjC[] = {
/* columns rows colors chars-per-pixel */
"10 10 3 1 ",
"  c #383E3A",
". c #036D67",
"X c gray54",
/* pixels */
"XXXXXXXXXX",
"..........",
"..........",
"..........",
"          ",
"          ",
"..........",
"..........",
"..........",
"XXXXXXXXXX"
};
