/* XPM */
static char *result[] = {
/* columns rows colors chars-per-pixel */
"15 10 5 1 ",
"  c #1E1E1E",
". c gray23",
"X c #27394F",
"o c #2D415A",
"O c #434343",
/* pixels */
"               ",
"ooooooooooooooo",
"ooooooooooooooo",
"XXXXXXXXXXXXXXX",
".OOOOOOOOOOOOO.",
".OOOOOOOOOOOOO.",
"XXXXXXXXXXXXXXX",
"ooooooooooooooo",
"ooooooooooooooo",
"               "
};
